# xmcd CD database file
#
# Track frame offsets:
#	150
#	49760
#	111835
#
# Disc length: 2935 seconds
#
# Revision: 0
# Processed by: cddbd v1.5.1PL0 Copyright (c) Steve Scherf et al.
# Submitted via: CDex 1.51
#
DISCID=200b7503
DTITLE=SELECT LIVE UNDER THE SKY'87 10th SPECIAL - TRIBUTE TO JOHN COLTRANE
DYEAR=1900
DGENRE=Jazz
TTITLE0=Mr.P.C.
TTITLE1=After The Rain/Naima
TTITLE2=India/Impressions
EXTD=
EXTT0=
EXTT1=
EXTT2=
PLAYORDER=
